<svg xmlns="http://www.w3.org/2000/svg" xmlns:xlink="http://www.w3.org/1999/xlink" width="500" zoomAndPan="magnify" viewBox="0 0 375 374.999991" height="500" preserveAspectRatio="xMidYMid meet" version="1.2"><defs><filter x="0%" y="0%" width="100%" filterUnits="objectBoundingBox" id="981e75d71c" height="100%"><feColorMatrix values="0 0 0 0 1 0 0 0 0 1 0 0 0 0 1 0 0 0 1 0" type="matrix" in="SourceGraphic"/></filter><clipPath id="01eb4b83d1"><path d="M 0.828125 1 L 254.5625 1 L 254.5625 121.847656 L 0.828125 121.847656 Z M 0.828125 1 "/></clipPath><clipPath id="ab3f66e19e"><rect x="0" width="257" y="0" height="124"/></clipPath></defs><g id="57ffe5219c"><rect x="0" width="375" y="0" height="374.999991" style="fill:#ffffff;fill-opacity:1;stroke:none;"/><rect x="0" width="375" y="0" height="374.999991" style="fill:#212529;fill-opacity:1;stroke:none;"/><g mask="url(#48dc1446be)" transform="matrix(1,0,0,1,10,126)"><g clip-path="url(#ab3f66e19e)"><g clip-rule="nonzero" clip-path="url(#01eb4b83d1)"><path style=" stroke:none;fill-rule:evenodd;fill:#02579b;fill-opacity:1;" d="M 254.5625 118.378906 L 122.863281 121.855469 L 0.824219 120.117188 Z M 254.5625 113.265625 L 122.863281 116.738281 L 0.824219 115.003906 Z M 185.070312 35.761719 C 185.070312 32.789062 187.472656 30.359375 190.476562 30.359375 C 193.449219 30.359375 195.882812 32.789062 195.882812 35.761719 C 195.882812 38.734375 193.449219 41.164062 190.476562 41.164062 C 187.472656 41.164062 185.070312 38.734375 185.070312 35.761719 Z M 161.875 86.84375 C 161.875 83.871094 164.304688 81.441406 167.277344 81.441406 C 170.253906 81.441406 172.683594 83.871094 172.683594 86.84375 C 172.683594 89.816406 170.253906 92.246094 167.277344 92.246094 C 164.304688 92.246094 161.875 89.816406 161.875 86.84375 Z M 192.90625 75.722656 C 192.90625 72.722656 195.308594 70.320312 198.3125 70.320312 C 201.289062 70.320312 203.691406 72.722656 203.691406 75.722656 C 203.691406 78.695312 201.289062 81.097656 198.3125 81.097656 C 195.308594 81.097656 192.90625 78.695312 192.90625 75.722656 Z M 163.703125 37.21875 C 163.703125 34.246094 166.109375 31.816406 169.082031 31.816406 C 172.085938 31.816406 174.488281 34.246094 174.488281 37.21875 C 174.488281 40.191406 172.085938 42.621094 169.082031 42.621094 C 166.109375 42.621094 163.703125 40.191406 163.703125 37.21875 Z M 115.339844 40.367188 C 115.339844 37.390625 117.769531 34.960938 120.746094 34.960938 C 123.71875 34.960938 126.148438 37.390625 126.148438 40.367188 C 126.148438 43.367188 123.71875 45.765625 120.746094 45.765625 C 117.769531 45.765625 115.339844 43.367188 115.339844 40.367188 Z M 140.164062 71.121094 C 140.164062 68.148438 142.597656 65.75 145.570312 65.75 C 148.546875 65.75 150.976562 68.148438 150.976562 71.121094 C 150.976562 74.121094 148.546875 76.523438 145.570312 76.523438 C 142.597656 76.523438 140.164062 74.121094 140.164062 71.121094 Z M 88.167969 89.585938 C 88.167969 86.613281 90.570312 84.210938 93.542969 84.210938 C 96.546875 84.210938 98.949219 86.613281 98.949219 89.585938 C 98.949219 92.585938 96.546875 94.988281 93.542969 94.988281 C 90.570312 94.988281 88.167969 92.585938 88.167969 89.585938 Z M 87.367188 64.289062 C 87.367188 61.316406 89.796875 58.886719 92.773438 58.886719 C 95.746094 58.886719 98.175781 61.316406 98.175781 64.289062 C 98.175781 67.261719 95.746094 69.691406 92.773438 69.691406 C 89.796875 69.691406 87.367188 67.261719 87.367188 64.289062 Z M 64.570312 55.65625 C 64.570312 52.683594 66.972656 50.285156 69.976562 50.285156 C 72.953125 50.285156 75.382812 52.683594 75.382812 55.65625 C 75.382812 58.660156 72.953125 61.058594 69.976562 61.058594 C 66.972656 61.058594 64.570312 58.660156 64.570312 55.65625 Z M 51.042969 81.382812 C 51.042969 78.410156 53.445312 75.980469 56.449219 75.980469 C 59.421875 75.980469 61.824219 78.410156 61.824219 81.382812 C 61.824219 84.355469 59.421875 86.785156 56.449219 86.785156 C 53.445312 86.785156 51.042969 84.355469 51.042969 81.382812 Z M 68.230469 62.773438 C 67.515625 62.601562 66.832031 62.316406 66.203125 61.917969 C 63.769531 66.117188 61.308594 70.292969 58.851562 74.492188 C 59.539062 74.722656 60.195312 75.066406 60.765625 75.496094 C 63.253906 71.265625 65.742188 67.003906 68.230469 62.773438 Z M 93.542969 82.296875 C 93.371094 78.726562 93.171875 75.152344 93 71.578125 C 92.914062 71.578125 92.859375 71.578125 92.773438 71.578125 C 92.113281 71.578125 91.457031 71.492188 90.800781 71.320312 C 91 75.09375 91.199219 78.867188 91.371094 82.640625 C 92.085938 82.410156 92.800781 82.296875 93.542969 82.296875 Z M 192.304688 79.871094 C 191.875 79.269531 191.5625 78.609375 191.332031 77.894531 C 185.5 79.808594 179.691406 81.753906 173.859375 83.671875 C 174.171875 84.328125 174.402344 85.011719 174.515625 85.757812 C 180.4375 83.785156 186.359375 81.839844 192.304688 79.871094 Z M 151.976562 74.667969 C 151.605469 75.292969 151.179688 75.894531 150.632812 76.378906 C 154.066406 78.695312 157.46875 81.011719 160.902344 83.328125 C 161.246094 82.667969 161.703125 82.097656 162.214844 81.582031 C 158.816406 79.269531 155.378906 76.953125 151.976562 74.667969 Z M 174.144531 42.480469 C 173.628906 42.992188 173.03125 43.421875 172.371094 43.738281 C 179.292969 52.683594 186.214844 61.632812 193.105469 70.578125 C 193.621094 70.066406 194.222656 69.605469 194.851562 69.261719 C 187.960938 60.34375 181.066406 51.425781 174.144531 42.480469 Z M 161.875 38.335938 C 156.523438 40.421875 151.207031 42.507812 145.855469 44.59375 L 145.800781 44.621094 L 145.714844 44.59375 C 139.820312 43.191406 133.929688 41.820312 128.039062 40.421875 C 128.039062 41.164062 127.925781 41.878906 127.695312 42.59375 C 133.671875 43.996094 139.648438 45.394531 145.628906 46.792969 C 145.828125 46.855469 146.054688 46.855469 146.257812 46.769531 C 151.691406 44.652344 157.097656 42.535156 162.53125 40.421875 C 162.214844 39.765625 161.988281 39.050781 161.875 38.335938 Z M 149.347656 64.886719 C 149.976562 65.261719 150.546875 65.75 151.035156 66.289062 C 155.867188 58.746094 160.699219 51.167969 165.535156 43.59375 C 164.878906 43.222656 164.304688 42.792969 163.816406 42.25 C 158.984375 49.796875 154.179688 57.34375 149.347656 64.886719 Z M 77.183594 56.828125 C 77.070312 57.574219 76.839844 58.257812 76.496094 58.914062 C 79.527344 60.261719 82.5625 61.574219 85.59375 62.886719 C 85.738281 62.175781 85.992188 61.488281 86.335938 60.832031 C 83.277344 59.515625 80.246094 58.171875 77.183594 56.828125 Z M 192.621094 42.535156 C 191.933594 42.765625 191.191406 42.878906 190.476562 42.878906 L 196.226562 68.71875 C 196.882812 68.519531 197.597656 68.40625 198.3125 68.40625 C 198.3125 68.40625 198.34375 68.40625 198.367188 68.40625 Z M 76.898438 53.34375 C 88.738281 46.425781 100.609375 39.535156 112.449219 32.617188 L 112.652344 32.503906 L 112.792969 32.675781 C 113.621094 33.617188 114.480469 34.5625 115.3125 35.476562 C 115.796875 34.933594 116.367188 34.476562 116.996094 34.101562 C 116.253906 33.273438 115.511719 32.445312 114.796875 31.644531 L 114.566406 31.386719 L 114.851562 31.214844 C 115.910156 30.589844 116.96875 29.988281 118.054688 29.359375 C 130.011719 23.699219 141.941406 18.039062 153.894531 12.378906 L 154.039062 12.320312 L 154.152344 12.40625 C 158.070312 15.152344 161.988281 17.867188 165.90625 20.585938 L 166.023438 20.671875 L 166.023438 20.785156 C 166.277344 23.957031 166.5625 27.128906 166.824219 30.273438 C 167.539062 30.046875 168.253906 29.929688 168.996094 29.929688 C 168.796875 27.558594 168.59375 25.214844 168.394531 22.871094 L 168.339844 22.273438 L 183.867188 33.101562 C 184.152344 32.417969 184.527344 31.789062 184.984375 31.214844 L 168.109375 19.46875 L 168.078125 19.324219 C 168.050781 18.78125 167.996094 18.269531 167.9375 17.722656 L 167.9375 17.523438 L 168.109375 17.4375 C 174.402344 15.066406 181.238281 14.351562 187.84375 15.722656 C 192.878906 16.78125 197.597656 18.984375 201.601562 22.210938 C 202.945312 23.269531 204.175781 24.441406 205.320312 25.699219 L 205.550781 25.957031 L 196.082031 31.386719 C 196.539062 31.960938 196.882812 32.589844 197.140625 33.273438 L 206.921875 27.671875 L 207.066406 27.84375 C 208.582031 29.875 209.867188 32.101562 210.867188 34.417969 C 213.84375 41.394531 214.214844 49.082031 212.671875 56.429688 C 212.613281 56.773438 212.699219 57.144531 212.929688 57.402344 C 219.675781 64.71875 225.140625 73.695312 225.253906 83.925781 C 225.28125 87.128906 224.796875 90.300781 223.855469 93.359375 L 223.738281 93.730469 L 223.425781 93.503906 C 217.160156 88.785156 210.898438 84.070312 204.632812 79.355469 C 204.261719 79.984375 203.804688 80.554688 203.289062 81.039062 C 209.78125 85.957031 216.304688 90.871094 222.796875 95.761719 L 222.964844 95.902344 L 222.882812 96.101562 C 220.964844 100.90625 218.074219 105.367188 214.757812 109.339844 L 214.671875 109.453125 L 214.558594 109.453125 C 200.171875 109.453125 185.785156 109.453125 171.425781 109.453125 L 171.167969 109.453125 L 171.140625 109.195312 C 170.65625 104.050781 170.167969 98.90625 169.683594 93.730469 C 168.996094 93.988281 168.28125 94.101562 167.539062 94.132812 C 168.023438 99.132812 168.480469 104.136719 168.96875 109.140625 L 168.996094 109.453125 L 168.683594 109.453125 C 163.445312 109.453125 158.242188 109.453125 153.007812 109.453125 L 152.261719 109.453125 L 152.835938 108.96875 C 153.09375 108.738281 153.238281 108.425781 153.207031 108.082031 C 152.664062 99.078125 152.148438 90.101562 151.605469 81.125 C 151.578125 80.695312 151.292969 80.324219 150.890625 80.183594 C 149.289062 79.582031 147.6875 79.011719 146.085938 78.410156 C 145.914062 78.4375 145.742188 78.4375 145.570312 78.4375 C 143.65625 78.4375 141.851562 77.695312 140.480469 76.378906 C 140.222656 76.265625 139.933594 76.179688 139.648438 76.066406 L 138.964844 75.808594 L 139.648438 75.550781 C 139.679688 75.550781 139.707031 75.550781 139.734375 75.523438 C 139.308594 74.953125 138.933594 74.292969 138.707031 73.605469 C 137.761719 73.953125 136.847656 74.292969 135.902344 74.636719 L 135.816406 74.667969 L 135.734375 74.636719 C 132.929688 73.636719 130.15625 72.605469 127.378906 71.605469 L 127.324219 71.578125 L 127.296875 71.550781 C 122.089844 67.035156 116.855469 62.515625 111.648438 58 L 111.476562 57.859375 L 111.59375 57.660156 C 111.707031 57.457031 111.820312 57.257812 111.964844 57.027344 L 111.992188 56.945312 L 112.078125 56.914062 C 114.882812 55.773438 117.65625 54.597656 120.429688 53.425781 L 120.574219 53.371094 L 120.714844 53.484375 C 126.808594 58.257812 132.929688 63.0625 139.050781 67.863281 C 139.363281 67.203125 139.792969 66.605469 140.308594 66.0625 C 134.015625 61.144531 127.722656 56.199219 121.429688 51.253906 C 121.117188 51.027344 120.660156 50.96875 120.285156 51.140625 C 118.371094 51.941406 116.453125 52.742188 114.539062 53.542969 L 113.792969 53.855469 L 114.222656 53.140625 C 115.394531 51.113281 116.570312 49.082031 117.742188 47.023438 C 117.082031 46.738281 116.453125 46.339844 115.910156 45.851562 C 114.136719 48.941406 112.335938 52.054688 110.535156 55.144531 L 110.476562 55.226562 L 110.390625 55.257812 C 106.53125 56.886719 102.640625 58.488281 98.777344 60.117188 C 99.179688 60.714844 99.523438 61.375 99.75 62.0625 C 102.726562 60.832031 105.730469 59.574219 108.703125 58.34375 L 108.960938 58.230469 L 109.074219 58.488281 C 109.132812 58.660156 109.246094 58.828125 109.390625 58.945312 L 109.417969 58.945312 C 114.96875 63.746094 120.515625 68.550781 126.066406 73.351562 C 126.148438 73.4375 126.265625 73.492188 126.40625 73.550781 C 128.265625 74.238281 130.125 74.894531 131.984375 75.582031 L 132.671875 75.839844 L 131.984375 76.09375 C 125.605469 78.46875 119.230469 80.839844 112.851562 83.210938 L 112.679688 83.269531 L 112.5625 83.125 C 107.757812 78.496094 102.953125 73.867188 98.175781 69.207031 C 97.664062 69.75 97.089844 70.207031 96.460938 70.578125 C 101.496094 75.46875 106.5 80.324219 111.535156 85.183594 L 111.5625 85.214844 L 111.5625 85.242188 C 116.113281 92.332031 120.660156 99.421875 125.207031 106.480469 L 125.808594 107.421875 L 124.835938 106.882812 C 116.597656 102.191406 108.359375 97.503906 100.09375 92.847656 C 99.78125 93.503906 99.351562 94.101562 98.835938 94.617188 C 107.246094 99.390625 115.652344 104.164062 124.0625 108.9375 L 124.976562 109.453125 L 123.949219 109.453125 C 114.738281 109.453125 105.5 109.453125 96.289062 109.453125 L 96.0625 109.453125 L 96.03125 109.195312 C 95.574219 105.082031 95.117188 100.933594 94.6875 96.820312 C 94.316406 96.875 93.917969 96.902344 93.542969 96.902344 C 93.203125 96.902344 92.828125 96.875 92.484375 96.820312 C 92.773438 99.535156 93.085938 102.25 93.371094 104.964844 L 93.488281 106.109375 L 92.886719 105.136719 C 88.796875 98.847656 84.707031 92.53125 80.644531 86.242188 L 80.617188 86.242188 C 80.472656 85.957031 80.214844 85.757812 79.902344 85.699219 C 74.496094 84.527344 69.089844 83.355469 63.683594 82.183594 C 63.597656 82.925781 63.425781 83.640625 63.140625 84.296875 C 68.375 85.441406 73.636719 86.585938 78.898438 87.699219 L 79.015625 87.730469 L 79.070312 87.8125 C 83.648438 94.902344 88.222656 101.964844 92.800781 109.023438 L 93.085938 109.453125 L 92.570312 109.453125 C 77.386719 109.453125 62.167969 109.453125 46.980469 109.453125 L 46.582031 109.453125 L 46.722656 109.082031 C 49.324219 102.191406 51.929688 95.304688 54.53125 88.414062 C 53.816406 88.246094 53.160156 87.929688 52.53125 87.558594 C 49.785156 94.789062 47.066406 102.019531 44.320312 109.28125 L 44.261719 109.453125 L 44.0625 109.453125 C 40.601562 109.453125 37.113281 109.453125 33.652344 109.453125 L 33.566406 109.453125 L 33.480469 109.394531 C 28.074219 105.453125 24.5 99.992188 23.328125 93.390625 C 22.441406 88.53125 22.957031 83.441406 24.527344 78.78125 C 25.128906 77.007812 25.875 75.265625 26.789062 73.636719 L 26.902344 73.4375 L 27.101562 73.523438 C 34.453125 75.867188 41.804688 78.238281 49.183594 80.609375 C 49.242188 79.871094 49.441406 79.152344 49.726562 78.496094 C 43.292969 76.4375 36.882812 74.378906 30.449219 72.292969 L 29.707031 72.066406 L 30.449219 71.78125 C 41.519531 67.632812 52.585938 63.488281 63.65625 59.371094 C 63.285156 58.746094 63.027344 58.058594 62.855469 57.34375 C 51.984375 61.402344 41.117188 65.460938 30.277344 69.550781 L 29.246094 69.921875 L 29.964844 69.089844 C 30.476562 68.550781 30.992188 67.976562 31.566406 67.492188 C 34.140625 65.089844 37.484375 63.316406 41.089844 63.601562 C 41.691406 63.632812 42.203125 63.175781 42.261719 62.601562 C 42.261719 62.433594 42.234375 62.289062 42.203125 62.144531 L 42.175781 62.144531 L 42.175781 62.117188 C 41.804688 60.660156 42.03125 58.914062 42.375 57.457031 C 43.292969 53.570312 45.578125 49.738281 48.210938 46.738281 L 48.324219 46.59375 L 48.523438 46.679688 C 48.582031 46.707031 48.640625 46.738281 48.726562 46.769531 C 53.53125 48.855469 58.335938 50.96875 63.140625 53.082031 C 63.425781 52.371094 63.800781 51.683594 64.285156 51.113281 C 59.621094 49.082031 54.960938 47.082031 50.328125 45.082031 L 49.925781 44.90625 L 50.242188 44.621094 C 53.503906 41.566406 57.421875 39.304688 61.769531 38.105469 C 66.515625 36.820312 71.433594 36.933594 76.210938 38.078125 C 76.785156 38.21875 77.386719 37.847656 77.527344 37.25 C 77.527344 37.21875 77.554688 37.164062 77.554688 37.132812 L 77.554688 37.105469 C 78.1875 33.648438 79.128906 30.1875 80.53125 26.957031 C 82.617188 22.070312 85.820312 17.78125 90.710938 15.382812 C 92.371094 14.582031 94.144531 14.007812 95.976562 13.695312 L 96.289062 13.636719 L 96.289062 13.953125 C 96.320312 14.207031 96.40625 14.4375 96.574219 14.636719 C 101.351562 19.957031 106.128906 25.273438 110.933594 30.617188 L 111.164062 30.847656 L 110.878906 31.015625 C 99.207031 37.820312 87.566406 44.621094 75.898438 51.398438 C 76.328125 51.996094 76.667969 52.65625 76.898438 53.34375 Z M 164.675781 17.070312 C 161.359375 14.78125 158.070312 12.464844 154.753906 10.179688 C 154.410156 9.949219 153.980469 9.921875 153.609375 10.121094 C 141.425781 15.867188 129.269531 21.640625 117.082031 27.414062 C 117.054688 27.414062 117.027344 27.445312 116.96875 27.472656 C 115.738281 28.1875 114.511719 28.902344 113.28125 29.617188 L 113.078125 29.730469 L 112.9375 29.558594 C 108.21875 24.328125 103.496094 19.070312 98.777344 13.835938 L 98.378906 13.40625 L 98.949219 13.378906 C 101.554688 13.238281 104.183594 13.492188 106.730469 13.953125 C 111.390625 14.808594 115.996094 16.410156 120.316406 18.296875 C 120.832031 18.496094 121.429688 18.296875 121.6875 17.839844 L 121.71875 17.808594 C 123.40625 15.179688 125.492188 12.753906 127.867188 10.691406 C 131.871094 7.234375 136.761719 4.691406 142.054688 3.917969 C 147.832031 3.0625 153.351562 4.464844 158.242188 7.578125 C 160.902344 9.292969 163.277344 11.4375 165.363281 13.808594 L 165.421875 13.867188 L 165.449219 13.980469 C 165.507812 14.636719 165.5625 15.292969 165.59375 15.953125 L 165.621094 16.097656 L 165.507812 16.183594 C 165.277344 16.355469 165.132812 16.609375 165.105469 16.894531 L 165.046875 17.324219 Z M 129.609375 109.308594 C 124.492188 101.335938 119.371094 93.332031 114.253906 85.355469 L 114.050781 85.070312 L 114.367188 84.957031 C 121.488281 82.296875 128.609375 79.667969 135.734375 77.007812 L 135.816406 76.980469 L 135.902344 77.007812 C 140.363281 78.640625 144.855469 80.269531 149.316406 81.898438 L 149.488281 81.957031 L 149.488281 82.15625 C 150.003906 90.816406 150.519531 99.503906 151.035156 108.195312 C 151.0625 108.507812 151.207031 108.765625 151.433594 108.96875 L 152.007812 109.453125 L 151.261719 109.453125 C 144.109375 109.453125 136.992188 109.453125 129.839844 109.453125 L 129.695312 109.453125 Z M 167.59375 13.609375 L 167.566406 13.351562 C 167.539062 13.121094 167.453125 12.894531 167.308594 12.722656 C 164.992188 10.066406 162.390625 7.664062 159.414062 5.75 C 154.066406 2.316406 148.058594 0.832031 141.738281 1.746094 C 136.046875 2.578125 130.785156 5.320312 126.464844 9.066406 C 124.207031 11.007812 122.175781 13.265625 120.457031 15.753906 L 120.34375 15.925781 L 120.144531 15.839844 C 115.96875 14.09375 111.59375 12.636719 107.128906 11.808594 C 101.351562 10.75 95.144531 10.808594 89.769531 13.4375 C 84.390625 16.066406 80.847656 20.695312 78.5 26.101562 C 77.214844 29.074219 76.328125 32.246094 75.667969 35.449219 L 75.609375 35.703125 L 75.355469 35.648438 C 70.632812 34.703125 65.828125 34.761719 61.195312 36.019531 C 55.675781 37.535156 50.8125 40.652344 46.980469 44.851562 C 43.949219 48.167969 41.316406 52.542969 40.261719 56.945312 C 39.945312 58.285156 39.746094 59.746094 39.832031 61.117188 L 39.859375 61.402344 L 39.601562 61.402344 C 35.96875 61.632812 32.707031 63.460938 30.078125 65.863281 C 28.277344 67.519531 26.757812 69.464844 25.5 71.550781 C 25.472656 71.578125 25.472656 71.578125 25.445312 71.605469 L 25.445312 71.636719 C 24.214844 73.667969 23.214844 75.839844 22.46875 78.09375 C 20.78125 83.097656 20.238281 88.558594 21.183594 93.789062 C 22.496094 101.078125 26.472656 107.050781 32.480469 111.339844 L 32.507812 111.371094 C 32.707031 111.539062 32.964844 111.625 33.222656 111.625 C 37.140625 111.625 41.089844 111.625 45.007812 111.625 C 61.710938 111.625 78.386719 111.625 95.089844 111.625 C 135.019531 111.625 174.972656 111.625 214.902344 111.625 L 215.1875 111.625 C 215.503906 111.625 215.816406 111.484375 216.015625 111.226562 C 219.851562 106.679688 223.195312 101.566406 225.253906 95.960938 L 225.28125 95.960938 C 225.28125 95.902344 225.3125 95.875 225.3125 95.816406 C 226.714844 91.988281 227.457031 87.984375 227.429688 83.898438 C 227.3125 73.320312 221.910156 64.089844 215.015625 56.429688 L 214.929688 56.3125 L 214.929688 56.199219 C 216.417969 48.59375 215.933594 40.734375 212.871094 33.5625 C 210.667969 28.472656 207.292969 23.984375 202.976562 20.527344 C 198.714844 17.070312 193.652344 14.722656 188.273438 13.609375 C 181.523438 12.207031 174.546875 12.808594 168.078125 15.125 L 167.738281 15.269531 L 167.707031 14.894531 C 167.679688 14.46875 167.625 14.039062 167.59375 13.609375 "/></g></g><mask id="48dc1446be"><g filter="url(#981e75d71c)"><rect x="0" width="375" y="0" height="374.999991" style="fill:#000000;fill-opacity:0.57;stroke:none;"/></g></mask></g><g style="fill:#ffffff;fill-opacity:1;"><g transform="translate(122.118124, 233.977881)"><path style="stroke:none" d="M 39.328125 -19.078125 C 39.328125 -12.773438 37.765625 -7.929688 34.640625 -4.546875 C 31.515625 -1.171875 27.035156 0.515625 21.203125 0.515625 C 15.378906 0.515625 10.90625 -1.171875 7.78125 -4.546875 C 4.65625 -7.929688 3.09375 -12.789062 3.09375 -19.125 C 3.09375 -25.457031 4.65625 -30.289062 7.78125 -33.625 C 10.914062 -36.96875 15.410156 -38.640625 21.265625 -38.640625 C 27.109375 -38.640625 31.578125 -36.957031 34.671875 -33.59375 C 37.773438 -30.226562 39.328125 -25.390625 39.328125 -19.078125 Z M 11.546875 -19.078125 C 11.546875 -14.828125 12.351562 -11.625 13.96875 -9.46875 C 15.582031 -7.320312 17.992188 -6.25 21.203125 -6.25 C 27.640625 -6.25 30.859375 -10.523438 30.859375 -19.078125 C 30.859375 -27.648438 27.660156 -31.9375 21.265625 -31.9375 C 18.054688 -31.9375 15.632812 -30.851562 14 -28.6875 C 12.363281 -26.53125 11.546875 -23.328125 11.546875 -19.078125 Z M 11.546875 -19.078125 "/></g></g><g style="fill:#ffffff;fill-opacity:1;"><g transform="translate(164.522103, 233.977881)"><path style="stroke:none" d="M 13.375 0.515625 C 9.957031 0.515625 7.269531 -0.804688 5.3125 -3.453125 C 3.363281 -6.109375 2.390625 -9.789062 2.390625 -14.5 C 2.390625 -19.269531 3.382812 -22.984375 5.375 -25.640625 C 7.363281 -28.304688 10.097656 -29.640625 13.578125 -29.640625 C 17.242188 -29.640625 20.039062 -28.21875 21.96875 -25.375 L 22.21875 -25.375 C 21.820312 -27.539062 21.625 -29.472656 21.625 -31.171875 L 21.625 -40.5 L 29.59375 -40.5 L 29.59375 0 L 23.5 0 L 21.96875 -3.78125 L 21.625 -3.78125 C 19.820312 -0.914062 17.070312 0.515625 13.375 0.515625 Z M 16.15625 -5.796875 C 18.1875 -5.796875 19.675781 -6.382812 20.625 -7.5625 C 21.570312 -8.75 22.085938 -10.753906 22.171875 -13.578125 L 22.171875 -14.4375 C 22.171875 -17.5625 21.6875 -19.800781 20.71875 -21.15625 C 19.757812 -22.507812 18.195312 -23.1875 16.03125 -23.1875 C 14.257812 -23.1875 12.882812 -22.4375 11.90625 -20.9375 C 10.925781 -19.4375 10.4375 -17.253906 10.4375 -14.390625 C 10.4375 -11.523438 10.929688 -9.375 11.921875 -7.9375 C 12.910156 -6.507812 14.320312 -5.796875 16.15625 -5.796875 Z M 16.15625 -5.796875 "/></g></g><g style="fill:#ffffff;fill-opacity:1;"><g transform="translate(198.237169, 233.977881)"><path style="stroke:none" d="M 20.34375 -29.640625 C 23.78125 -29.640625 26.46875 -28.296875 28.40625 -25.609375 C 30.351562 -22.929688 31.328125 -19.257812 31.328125 -14.59375 C 31.328125 -9.789062 30.328125 -6.070312 28.328125 -3.4375 C 26.328125 -0.800781 23.597656 0.515625 20.140625 0.515625 C 16.722656 0.515625 14.039062 -0.722656 12.09375 -3.203125 L 11.546875 -3.203125 L 10.234375 0 L 4.15625 0 L 4.15625 -40.5 L 12.09375 -40.5 L 12.09375 -31.078125 C 12.09375 -29.878906 11.988281 -27.960938 11.78125 -25.328125 L 12.09375 -25.328125 C 13.957031 -28.203125 16.707031 -29.640625 20.34375 -29.640625 Z M 17.796875 -23.296875 C 15.835938 -23.296875 14.40625 -22.691406 13.5 -21.484375 C 12.601562 -20.273438 12.132812 -18.285156 12.09375 -15.515625 L 12.09375 -14.65625 C 12.09375 -11.53125 12.554688 -9.289062 13.484375 -7.9375 C 14.421875 -6.582031 15.894531 -5.90625 17.90625 -5.90625 C 19.53125 -5.90625 20.820312 -6.65625 21.78125 -8.15625 C 22.75 -9.65625 23.234375 -11.835938 23.234375 -14.703125 C 23.234375 -17.566406 22.75 -19.710938 21.78125 -21.140625 C 20.8125 -22.578125 19.484375 -23.296875 17.796875 -23.296875 Z M 17.796875 -23.296875 "/></g></g><g style="fill:#ffffff;fill-opacity:1;"><g transform="translate(231.952236, 233.977881)"><path style="stroke:none" d="M 20.953125 -31.875 C 17.910156 -31.875 15.554688 -30.734375 13.890625 -28.453125 C 12.234375 -26.171875 11.40625 -22.992188 11.40625 -18.921875 C 11.40625 -10.429688 14.585938 -6.1875 20.953125 -6.1875 C 23.617188 -6.1875 26.851562 -6.859375 30.65625 -8.203125 L 30.65625 -1.4375 C 27.53125 -0.132812 24.039062 0.515625 20.1875 0.515625 C 14.65625 0.515625 10.421875 -1.160156 7.484375 -4.515625 C 4.554688 -7.867188 3.09375 -12.6875 3.09375 -18.96875 C 3.09375 -22.925781 3.8125 -26.390625 5.25 -29.359375 C 6.695312 -32.335938 8.769531 -34.617188 11.46875 -36.203125 C 14.164062 -37.796875 17.328125 -38.59375 20.953125 -38.59375 C 24.648438 -38.59375 28.363281 -37.695312 32.09375 -35.90625 L 29.484375 -29.359375 C 28.054688 -30.035156 26.625 -30.625 25.1875 -31.125 C 23.75 -31.625 22.335938 -31.875 20.953125 -31.875 Z M 20.953125 -31.875 "/></g></g><g style="fill:#ffffff;fill-opacity:1;"><g transform="translate(265.901449, 233.977881)"><path style="stroke:none" d="M 10.484375 -14.59375 C 10.484375 -11.71875 10.957031 -9.539062 11.90625 -8.0625 C 12.851562 -6.59375 14.394531 -5.859375 16.53125 -5.859375 C 18.644531 -5.859375 20.164062 -6.585938 21.09375 -8.046875 C 22.019531 -9.515625 22.484375 -11.695312 22.484375 -14.59375 C 22.484375 -17.476562 22.015625 -19.640625 21.078125 -21.078125 C 20.140625 -22.515625 18.601562 -23.234375 16.46875 -23.234375 C 14.351562 -23.234375 12.828125 -22.519531 11.890625 -21.09375 C 10.953125 -19.664062 10.484375 -17.5 10.484375 -14.59375 Z M 30.609375 -14.59375 C 30.609375 -9.863281 29.359375 -6.160156 26.859375 -3.484375 C 24.359375 -0.816406 20.878906 0.515625 16.421875 0.515625 C 13.628906 0.515625 11.164062 -0.09375 9.03125 -1.3125 C 6.894531 -2.539062 5.253906 -4.296875 4.109375 -6.578125 C 2.960938 -8.867188 2.390625 -11.539062 2.390625 -14.59375 C 2.390625 -19.351562 3.628906 -23.050781 6.109375 -25.6875 C 8.597656 -28.320312 12.085938 -29.640625 16.578125 -29.640625 C 19.367188 -29.640625 21.832031 -29.03125 23.96875 -27.8125 C 26.101562 -26.601562 27.742188 -24.859375 28.890625 -22.578125 C 30.035156 -20.304688 30.609375 -17.644531 30.609375 -14.59375 Z M 30.609375 -14.59375 "/></g></g><g style="fill:#ffffff;fill-opacity:1;"><g transform="translate(298.888102, 233.977881)"><path style="stroke:none" d="M 13.375 0.515625 C 9.957031 0.515625 7.269531 -0.804688 5.3125 -3.453125 C 3.363281 -6.109375 2.390625 -9.789062 2.390625 -14.5 C 2.390625 -19.269531 3.382812 -22.984375 5.375 -25.640625 C 7.363281 -28.304688 10.097656 -29.640625 13.578125 -29.640625 C 17.242188 -29.640625 20.039062 -28.21875 21.96875 -25.375 L 22.21875 -25.375 C 21.820312 -27.539062 21.625 -29.472656 21.625 -31.171875 L 21.625 -40.5 L 29.59375 -40.5 L 29.59375 0 L 23.5 0 L 21.96875 -3.78125 L 21.625 -3.78125 C 19.820312 -0.914062 17.070312 0.515625 13.375 0.515625 Z M 16.15625 -5.796875 C 18.1875 -5.796875 19.675781 -6.382812 20.625 -7.5625 C 21.570312 -8.75 22.085938 -10.753906 22.171875 -13.578125 L 22.171875 -14.4375 C 22.171875 -17.5625 21.6875 -19.800781 20.71875 -21.15625 C 19.757812 -22.507812 18.195312 -23.1875 16.03125 -23.1875 C 14.257812 -23.1875 12.882812 -22.4375 11.90625 -20.9375 C 10.925781 -19.4375 10.4375 -17.253906 10.4375 -14.390625 C 10.4375 -11.523438 10.929688 -9.375 11.921875 -7.9375 C 12.910156 -6.507812 14.320312 -5.796875 16.15625 -5.796875 Z M 16.15625 -5.796875 "/></g></g><g style="fill:#ffffff;fill-opacity:1;"><g transform="translate(332.603169, 233.977881)"><path style="stroke:none" d="M 16.21875 -24 C 14.53125 -24 13.207031 -23.460938 12.25 -22.390625 C 11.300781 -21.328125 10.757812 -19.816406 10.625 -17.859375 L 21.75 -17.859375 C 21.71875 -19.816406 21.207031 -21.328125 20.21875 -22.390625 C 19.226562 -23.460938 17.894531 -24 16.21875 -24 Z M 17.328125 0.515625 C 12.648438 0.515625 8.988281 -0.773438 6.34375 -3.359375 C 3.707031 -5.941406 2.390625 -9.601562 2.390625 -14.34375 C 2.390625 -19.21875 3.609375 -22.984375 6.046875 -25.640625 C 8.484375 -28.304688 11.851562 -29.640625 16.15625 -29.640625 C 20.269531 -29.640625 23.472656 -28.46875 25.765625 -26.125 C 28.054688 -23.78125 29.203125 -20.546875 29.203125 -16.421875 L 29.203125 -12.5625 L 10.4375 -12.5625 C 10.519531 -10.3125 11.1875 -8.550781 12.4375 -7.28125 C 13.6875 -6.019531 15.441406 -5.390625 17.703125 -5.390625 C 19.453125 -5.390625 21.109375 -5.570312 22.671875 -5.9375 C 24.234375 -6.300781 25.863281 -6.878906 27.5625 -7.671875 L 27.5625 -1.53125 C 26.175781 -0.84375 24.691406 -0.332031 23.109375 0 C 21.523438 0.34375 19.597656 0.515625 17.328125 0.515625 Z M 17.328125 0.515625 "/></g></g></g></svg>